inDegrees=no
num_controls=7
num_derivatives=13
num_iterations=151
num_multipliers=7
num_parameters=0
num_slacks=7
num_states=26
objective=0.502701
objective_accelerations=0.042654
objective_balance=0.004449
objective_effort=0.033897
objective_height=0.309831
objective_ligament=0.111870
solver_duration=1983.297132
status=Solve_Succeeded
success=true
DataType=double
version=3
OpenSimVersion=4.5
endheader
time	/jointset/ground_pelvis/pelvis_tilt/value	/jointset/ground_pelvis/pelvis_tx/value	/jointset/ground_pelvis/pelvis_ty/value	/jointset/hip_l/hip_flexion_l/value	/jointset/hip_l/hip_adduction_l/value	/jointset/hip_l/hip_rotation_l/value	/jointset/back/lumbar_extension/value	/jointset/patellofemoral_l/patellar_flexion_l/value	/jointset/knee_l/knee_flexion_l/value	/jointset/knee_l/knee_adduction_l/value	/jointset/knee_l/knee_rotation_l/value	/jointset/ankle_l/ankle_angle_l/value	/jointset/subtalar_l/subtalar_angle_l/value	/jointset/ground_pelvis/pelvis_tilt/speed	/jointset/ground_pelvis/pelvis_tx/speed	/jointset/ground_pelvis/pelvis_ty/speed	/jointset/hip_l/hip_flexion_l/speed	/jointset/hip_l/hip_adduction_l/speed	/jointset/hip_l/hip_rotation_l/speed	/jointset/back/lumbar_extension/speed	/jointset/patellofemoral_l/patellar_flexion_l/speed	/jointset/knee_l/knee_flexion_l/speed	/jointset/knee_l/knee_adduction_l/speed	/jointset/knee_l/knee_rotation_l/speed	/jointset/ankle_l/ankle_angle_l/speed	/jointset/subtalar_l/subtalar_angle_l/speed	/forceset/tau_hip_flexion_l	/forceset/tau_hip_adduction_l	/forceset/tau_hip_rotation_l	/forceset/tau_knee_flexion_l	/forceset/tau_ankle_angle_l	/forceset/tau_subtalar_angle_l	/forceset/tau_lumbar_extension	lambda_cid13_p0	lambda_cid13_p1	lambda_cid13_p2	lambda_cid13_p3	lambda_cid13_p4	lambda_cid13_p5	lambda_cid14_p0	/jointset/ground_pelvis/pelvis_tilt/accel	/jointset/ground_pelvis/pelvis_tx/accel	/jointset/ground_pelvis/pelvis_ty/accel	/jointset/hip_l/hip_flexion_l/accel	/jointset/hip_l/hip_adduction_l/accel	/jointset/hip_l/hip_rotation_l/accel	/jointset/back/lumbar_extension/accel	/jointset/patellofemoral_l/patellar_flexion_l/accel	/jointset/knee_l/knee_flexion_l/accel	/jointset/knee_l/knee_adduction_l/accel	/jointset/knee_l/knee_rotation_l/accel	/jointset/ankle_l/ankle_angle_l/accel	/jointset/subtalar_l/subtalar_angle_l/accel	gamma_cid13_p0	gamma_cid13_p1	gamma_cid13_p2	gamma_cid13_p3	gamma_cid13_p4	gamma_cid13_p5	gamma_cid14_p0
1.5	-0.05994986328146157	-0.05443043076046294	0.8532575094893607	0.7430349136300247	-0.2968348662306405	-0.1823353716556155	-0.8049516069436736	0.6637226591178792	0.6637226591175817	-0.06775298331222616	-0.1704171119248709	0.03670844959195394	0.01076131219112098	0.566625167379847	0.2831066721262471	0.4217208592396537	-2.17669756716617	0.1891549868182182	-0.6514942731566329	0.846005302815603	-1.794823479138387	-1.794823479138439	0.0703070775240302	-0.01651897691609593	-0.2292429154180535	0.1285315537633068	-0.243724255062349	0.0302950487244662	-0.007447319696758314	-0.1804303585724734	0.131870508037839	0.03699546407324499	0.3054067499980327	-0.07931031629731751	-16.89545843209205	3.201303056855156	-14.56069474094717	-667.0934061855378	-66.23680816497802	-19.11130157136246	0.3175633137739983	0.8771640234747373	-0.6078378662338971	-0.6526604005464576	0.5785036516913139	0.1835751132888876	2.098257414014833	-0.03824210900543497	-0.03824210900542842	-0.03083401437930759	-0.04449298052201422	0.593822744096048	0.7773706824220411	2.17810089186056e-07	7.028372901561328e-07	-9.315938261818457e-07	2.528671930014124e-08	2.322736946780487e-07	4.558045364112344e-08	2.288852597059973e-07
1.51	-0.05426839235194612	-0.05155573540949671	0.8574436461990628	0.7212371560761823	-0.2949158251438971	-0.188840192739873	-0.7963879579495922	0.6457742177803872	0.6457742177801977	-0.06705415817673713	-0.1705852641168313	0.03444573188910606	0.01208396364083886	0.5695787549512843	0.2918052499508835	0.4154356056444701	-2.182593508507225	0.1946065651932311	-0.6493806555987617	0.8666190012581713	-1.794653116623681	-1.794653116623708	0.06939387043123206	-0.0170978036868582	-0.2232582224039146	0.1359635811716015	-0.2345313806432163	0.02913574913267479	-0.00744273111772947	-0.1786746925428097	0.1322229504934054	0.03598716586284067	0.2972901434580075	0.263568233108579	-16.56415673580012	3.201674439925396	-14.40948707946525	-662.6919006074602	-66.2977265737206	-19.67192682044878	0.2707418067695031	0.8621375939001951	-0.6494514124301013	-0.5189671552000912	0.521488996639162	0.2388674618190962	2.027101848285775	0.07638034178181244	0.07638034178545404	-0.1310852617200793	-0.06273072685101469	0.6071783662823214	0.7208395144684261	2.180629824301091e-07	7.153385055831199e-07	-9.328596644777474e-07	2.559162436372512e-08	2.415053642281668e-07	6.243144240053814e-08	2.291264119129318e-07
1.52	-0.04856008848112746	-0.04859486769389618	0.8615648139115594	0.6993882578780671	-0.2929436674601624	-0.1953211551715937	-0.7876213368133016	0.627833821050062	0.6278338210499725	-0.06636636935316698	-0.1707588352167977	0.03224413827364137	0.01347987951352679	0.5719917556403584	0.3003411450531047	0.4087270597985725	-2.186925696020888	0.1997783062175662	-0.6467225426495776	0.88659973125707	-1.793214557706046	-1.793214557706048	0.0680998151388362	-0.01760275851752545	-0.2170180979413976	0.1431844383573067	-0.2253385062240711	0.0279764495408707	-0.007438142538715263	-0.1769190265131354	0.1325753929489751	0.03497886765243054	0.2891735369179947	0.6042801416373256	-16.23453844645157	3.204671167757465	-14.30113562882052	-658.3503208569235	-66.4076885615236	-20.20582410413779	0.2094459373015398	0.844627478991519	-0.6924963163766852	-0.3399096350681039	0.5225361815557569	0.2924741915514784	1.971663725281052	0.2153971715804553	0.2153971715804654	-0.1070036542988489	-0.02971859250296781	0.6449090337714587	0.7351366379040956	2.189752330149509e-07	7.263145633563999e-07	-9.343229478351172e-07	2.42652686174372e-08	2.541229279374711e-07	7.881820038864832e-08	2.291714063698833e-07
1.53	-0.04283035409827453	-0.04554952373299932	0.8656168368994169	0.6775038144496721	-0.2909213055272875	-0.2017728798032474	-0.7786583833342434	0.6099141419363834	0.6099141419362754	-0.06569353151008249	-0.1709370796973443	0.03010616647640683	0.01494682411981582	0.5738611287837948	0.3086927264068317	0.4016111749462218	-2.189694515249482	0.204636537162639	-0.6435354312029544	0.9058579392929285	-1.790501938585453	-1.790501938585434	0.06639696899320921	-0.0180332453464697	-0.2105371651819254	0.1501580772606128	-0.2157309763982082	0.02648276951233335	-0.007435838033771961	-0.1756876464106631	0.133451172687004	0.03377158371632086	0.2806950696888504	1.098382647572818	-15.83951519708005	3.190565608807313	-14.20363638976296	-654.0531295821621	-66.45869530873513	-20.70965549625616	0.1616080046905323	0.8251892687764012	-0.7310331899566567	-0.2050687457475527	0.458832426810653	0.3450928758452129	1.882945553795695	0.3320474647888203	0.3320474647918065	-0.2124522336695856	-0.04798249729191181	0.6555763656322872	0.6715080206016758	2.205880507743808e-07	7.356701411226162e-07	-9.35996016570297e-07	2.120569826066051e-08	2.703380041909107e-07	9.471171318224746e-08	2.290079832174779e-07
